#include "hUGEDriver.h"
#include <stddef.h>

static const unsigned char order_cnt = 8;

static const unsigned char P0[] = {
    DN(Ds4,1,0x000),
    DN(___,0,0x000),
    DN(___,0,0x000),
    DN(___,0,0x000),
    DN(Ds5,1,0x000),
    DN(Ds5,1,0x000),
    DN(Ds5,1,0x000),
    DN(Ds4,1,0x000),
    DN(___,0,0x000),
    DN(Ds4,1,0x000),
    DN(Ds4,1,0x000),
    DN(___,0,0x000),
    DN(Ds5,1,0x000),
    DN(___,0,0x000),
    DN(Ds4,1,0x000),
    DN(___,0,0x000),
    DN(Fs4,1,0x000),
    DN(___,0,0x000),
    DN(___,0,0x000),
    DN(___,0,0x000),
    DN(Ds5,1,0x000),
    DN(Ds5,1,0x000),
    DN(Ds5,1,0x000),
    DN(Fs4,1,0x000),
    DN(___,0,0x000),
    DN(Fs4,1,0x000),
    DN(Fs4,1,0x000),
    DN(___,0,0x000),
    DN(Ds5,1,0x000),
    DN(___,0,0x000),
    DN(Fs4,1,0x000),
    DN(___,0,0x000),
    DN(Gs4,1,0x000),
    DN(___,0,0x000),
    DN(___,0,0x000),
    DN(___,0,0x000),
    DN(Ds5,1,0x000),
    DN(Ds5,1,0x000),
    DN(Ds5,1,0x000),
    DN(Gs4,1,0x000),
    DN(___,0,0x000),
    DN(Gs4,1,0x000),
    DN(Gs4,1,0x000),
    DN(___,0,0x000),
    DN(Ds5,1,0x000),
    DN(___,0,0x000),
    DN(Gs4,1,0x000),
    DN(___,0,0x000),
    DN(Gs4,1,0x000),
    DN(___,0,0x000),
    DN(___,0,0x000),
    DN(___,0,0x000),
    DN(Ds5,1,0x000),
    DN(Ds5,1,0x000),
    DN(Ds5,1,0x000),
    DN(Gs4,1,0x000),
    DN(___,0,0x000),
    DN(Gs4,1,0x000),
    DN(Gs4,1,0x000),
    DN(___,0,0x000),
    DN(Ds5,1,0x000),
    DN(___,0,0x000),
    DN(Gs4,1,0x000),
    DN(___,0,0x000),
};
static const unsigned char P1[] = {
    DN(Ds5,2,0x000),
    DN(___,0,0x000),
    DN(___,0,0x000),
    DN(Ds5,2,0x000),
    DN(___,0,0x000),
    DN(___,0,0x000),
    DN(Ds5,2,0x000),
    DN(___,0,0x000),
    DN(___,0,0x000),
    DN(___,0,0x000),
    DN(Ds5,2,0x000),
    DN(F_5,2,0x000),
    DN(Fs5,2,0x000),
    DN(F_5,2,0x000),
    DN(___,0,0x000),
    DN(Cs5,2,0x000),
    DN(Fs5,2,0x000),
    DN(___,0,0x000),
    DN(___,0,0x000),
    DN(Fs5,2,0x000),
    DN(___,0,0x000),
    DN(___,0,0x000),
    DN(Fs5,2,0x000),
    DN(___,0,0x000),
    DN(___,0,0x000),
    DN(___,0,0x000),
    DN(Fs5,2,0x000),
    DN(Gs5,2,0x000),
    DN(Fs5,2,0x000),
    DN(F_5,2,0x000),
    DN(Cs5,2,0x000),
    DN(___,0,0x000),
    DN(Gs3,2,0x000),
    DN(Ds5,2,0x000),
    DN(___,0,0x000),
    DN(Gs3,2,0x000),
    DN(Ds5,2,0x000),
    DN(___,0,0x000),
    DN(Gs3,2,0x000),
    DN(Ds5,2,0x000),
    DN(___,0,0x000),
    DN(Gs3,2,0x000),
    DN(Ds5,2,0x000),
    DN(___,0,0x000),
    DN(Gs3,2,0x000),
    DN(Ds5,2,0x000),
    DN(___,0,0x000),
    DN(Gs3,2,0x000),
    DN(Ds5,2,0x000),
    DN(___,0,0x000),
    DN(Gs3,2,0x000),
    DN(Ds5,2,0x000),
    DN(___,0,0x000),
    DN(Gs3,2,0x000),
    DN(Ds5,2,0x000),
    DN(___,0,0x000),
    DN(Gs3,2,0x000),
    DN(___,0,0x000),
    DN(Cs4,2,0x000),
    DN(Ds4,2,0x000),
    DN(F_4,2,0x000),
    DN(Ds4,2,0x000),
    DN(Cs4,2,0x000),
    DN(Ds4,2,0x000),
};
static const unsigned char P2[] = {
    DN(Ds4,2,0x000),
    DN(___,0,0x000),
    DN(Ds5,2,0x000),
    DN(___,0,0x000),
    DN(Ds4,2,0x000),
    DN(___,0,0x000),
    DN(Ds5,2,0x000),
    DN(___,0,0x000),
    DN(Ds4,2,0x000),
    DN(___,0,0x000),
    DN(Ds5,2,0x000),
    DN(___,0,0x000),
    DN(Ds4,2,0x000),
    DN(___,0,0x000),
    DN(Ds5,2,0x000),
    DN(___,0,0x000),
    DN(Fs4,2,0x000),
    DN(___,0,0x000),
    DN(Fs5,2,0x000),
    DN(___,0,0x000),
    DN(Fs4,2,0x000),
    DN(___,0,0x000),
    DN(Fs5,2,0x000),
    DN(___,0,0x000),
    DN(Fs4,2,0x000),
    DN(___,0,0x000),
    DN(Fs5,2,0x000),
    DN(___,0,0x000),
    DN(Fs4,2,0x000),
    DN(___,0,0x000),
    DN(Fs5,2,0x000),
    DN(___,0,0x000),
    DN(Gs4,2,0x000),
    DN(___,0,0x000),
    DN(Gs5,2,0x000),
    DN(___,0,0x000),
    DN(Gs4,2,0x000),
    DN(___,0,0x000),
    DN(Gs5,2,0x000),
    DN(___,0,0x000),
    DN(Gs4,2,0x000),
    DN(___,0,0x000),
    DN(Gs5,2,0x000),
    DN(___,0,0x000),
    DN(Gs4,2,0x000),
    DN(___,0,0x000),
    DN(Gs5,2,0x000),
    DN(___,0,0x000),
    DN(Gs4,2,0x000),
    DN(___,0,0x000),
    DN(Gs5,2,0x000),
    DN(___,0,0x000),
    DN(Gs4,2,0x000),
    DN(___,0,0x000),
    DN(Gs5,2,0x000),
    DN(___,0,0x000),
    DN(Gs4,2,0x000),
    DN(___,0,0x000),
    DN(Gs5,2,0x000),
    DN(___,0,0x000),
    DN(Gs4,2,0x000),
    DN(___,0,0x000),
    DN(Gs5,2,0x000),
    DN(___,0,0x000),
};
static const unsigned char P3[] = {
    DN(___,0,0x000),
    DN(___,0,0x000),
    DN(___,0,0x000),
    DN(___,0,0x000),
    DN(___,0,0x000),
    DN(___,0,0x000),
    DN(___,0,0x000),
    DN(___,0,0x000),
    DN(___,0,0x000),
    DN(___,0,0x000),
    DN(___,0,0x000),
    DN(___,0,0x000),
    DN(___,0,0x000),
    DN(___,0,0x000),
    DN(___,0,0x000),
    DN(___,0,0x000),
    DN(___,0,0x000),
    DN(___,0,0x000),
    DN(___,0,0x000),
    DN(___,0,0x000),
    DN(___,0,0x000),
    DN(___,0,0x000),
    DN(___,0,0x000),
    DN(___,0,0x000),
    DN(___,0,0x000),
    DN(___,0,0x000),
    DN(___,0,0x000),
    DN(___,0,0x000),
    DN(___,0,0x000),
    DN(___,0,0x000),
    DN(___,0,0x000),
    DN(___,0,0x000),
    DN(___,0,0x000),
    DN(___,0,0x000),
    DN(___,0,0x000),
    DN(___,0,0x000),
    DN(___,0,0x000),
    DN(___,0,0x000),
    DN(___,0,0x000),
    DN(___,0,0x000),
    DN(___,0,0x000),
    DN(___,0,0x000),
    DN(___,0,0x000),
    DN(___,0,0x000),
    DN(___,0,0x000),
    DN(___,0,0x000),
    DN(___,0,0x000),
    DN(___,0,0x000),
    DN(___,0,0x000),
    DN(___,0,0x000),
    DN(___,0,0x000),
    DN(___,0,0x000),
    DN(___,0,0x000),
    DN(___,0,0x000),
    DN(___,0,0x000),
    DN(___,0,0x000),
    DN(___,0,0x000),
    DN(___,0,0x000),
    DN(___,0,0x000),
    DN(___,0,0x000),
    DN(___,0,0x000),
    DN(___,0,0x000),
    DN(___,0,0x000),
    DN(___,0,0x000),
};
static const unsigned char P4[] = {
    DN(___,0,0x000),
    DN(___,0,0x000),
    DN(___,0,0x000),
    DN(___,0,0x000),
    DN(C_7,1,0x000),
    DN(___,0,0x000),
    DN(___,0,0x000),
    DN(C_7,1,0x000),
    DN(___,0,0x000),
    DN(___,0,0x000),
    DN(___,0,0x000),
    DN(___,0,0x000),
    DN(C_7,1,0x000),
    DN(___,0,0x000),
    DN(___,0,0x000),
    DN(___,0,0x000),
    DN(___,0,0x000),
    DN(___,0,0x000),
    DN(___,0,0x000),
    DN(___,0,0x000),
    DN(C_7,1,0x000),
    DN(___,0,0x000),
    DN(___,0,0x000),
    DN(C_7,1,0x000),
    DN(___,0,0x000),
    DN(___,0,0x000),
    DN(___,0,0x000),
    DN(___,0,0x000),
    DN(C_7,1,0x000),
    DN(___,0,0x000),
    DN(___,0,0x000),
    DN(___,0,0x000),
    DN(___,0,0x000),
    DN(___,0,0x000),
    DN(___,0,0x000),
    DN(___,0,0x000),
    DN(C_7,1,0x000),
    DN(___,0,0x000),
    DN(___,0,0x000),
    DN(C_7,1,0x000),
    DN(___,0,0x000),
    DN(___,0,0x000),
    DN(___,0,0x000),
    DN(___,0,0x000),
    DN(C_7,1,0x000),
    DN(___,0,0x000),
    DN(___,0,0x000),
    DN(___,0,0x000),
    DN(___,0,0x000),
    DN(___,0,0x000),
    DN(___,0,0x000),
    DN(___,0,0x000),
    DN(C_7,1,0x000),
    DN(___,0,0x000),
    DN(___,0,0x000),
    DN(C_7,1,0x000),
    DN(___,0,0x000),
    DN(___,0,0x000),
    DN(___,0,0x000),
    DN(___,0,0x000),
    DN(C_7,1,0x000),
    DN(___,0,0x000),
    DN(___,0,0x000),
    DN(___,0,0x000),
};
static const unsigned char P5[] = {
    DN(Gs5,1,0x000),
    DN(___,0,0x000),
    DN(___,0,0x000),
    DN(As5,1,0x000),
    DN(___,0,0x000),
    DN(___,0,0x000),
    DN(Gs5,1,0x000),
    DN(___,0,0x000),
    DN(___,0,0x000),
    DN(As5,1,0x000),
    DN(___,0,0x000),
    DN(___,0,0x000),
    DN(Gs5,1,0x000),
    DN(___,0,0x000),
    DN(As5,1,0x000),
    DN(___,0,0x000),
    DN(Cs6,1,0x000),
    DN(___,0,0x000),
    DN(Cs6,1,0x000),
    DN(Ds6,1,0x000),
    DN(Cs6,1,0x000),
    DN(C_6,1,0x000),
    DN(___,0,0x000),
    DN(Gs5,1,0x000),
    DN(___,0,0x000),
    DN(___,0,0x000),
    DN(___,0,0x000),
    DN(___,0,0x000),
    DN(___,0,0x000),
    DN(___,0,0x000),
    DN(___,0,0x000),
    DN(___,0,0x000),
    DN(Gs5,3,0x000),
    DN(___,0,0x000),
    DN(___,0,0x000),
    DN(As5,3,0x000),
    DN(___,0,0x000),
    DN(___,0,0x000),
    DN(Gs5,3,0x000),
    DN(___,0,0x000),
    DN(___,0,0x000),
    DN(As5,3,0x000),
    DN(___,0,0x000),
    DN(___,0,0x000),
    DN(Gs5,3,0x000),
    DN(___,0,0x000),
    DN(As5,3,0x000),
    DN(___,0,0x000),
    DN(Cs6,3,0x000),
    DN(___,0,0x000),
    DN(Cs6,3,0x000),
    DN(Ds6,3,0x000),
    DN(Cs6,3,0x000),
    DN(C_6,3,0x000),
    DN(___,0,0x000),
    DN(Gs5,3,0x000),
    DN(___,0,0x000),
    DN(___,0,0x000),
    DN(___,0,0x000),
    DN(___,0,0x000),
    DN(___,0,0x000),
    DN(___,0,0x000),
    DN(___,0,0x000),
    DN(___,0,0x000),
};
static const unsigned char P6[] = {
    DN(Ds5,2,0x000),
    DN(Ds4,2,0x000),
    DN(___,0,0x000),
    DN(Ds5,2,0x000),
    DN(Ds4,2,0x000),
    DN(___,0,0x000),
    DN(Ds5,2,0x000),
    DN(Ds4,2,0x000),
    DN(___,0,0x000),
    DN(Ds5,2,0x000),
    DN(Ds4,2,0x000),
    DN(___,0,0x000),
    DN(Ds5,2,0x000),
    DN(Ds4,2,0x000),
    DN(Ds5,2,0x000),
    DN(Ds4,2,0x000),
    DN(Fs5,2,0x000),
    DN(Fs4,2,0x000),
    DN(___,0,0x000),
    DN(Fs5,2,0x000),
    DN(Fs4,2,0x000),
    DN(___,0,0x000),
    DN(Fs5,2,0x000),
    DN(Fs4,2,0x000),
    DN(___,0,0x000),
    DN(Fs5,2,0x000),
    DN(Fs4,2,0x000),
    DN(___,0,0x000),
    DN(Fs5,2,0x000),
    DN(Fs4,2,0x000),
    DN(Fs5,2,0x000),
    DN(Fs4,2,0x000),
    DN(Gs5,2,0x000),
    DN(Gs4,2,0x000),
    DN(___,0,0x000),
    DN(Gs5,2,0x000),
    DN(Gs4,2,0x000),
    DN(___,0,0x000),
    DN(Gs5,2,0x000),
    DN(Gs4,2,0x000),
    DN(___,0,0x000),
    DN(Gs5,2,0x000),
    DN(Gs4,2,0x000),
    DN(___,0,0x000),
    DN(Gs5,2,0x000),
    DN(Gs4,2,0x000),
    DN(Gs5,2,0x000),
    DN(Gs4,2,0x000),
    DN(Gs5,2,0x000),
    DN(Gs4,2,0x000),
    DN(___,0,0x000),
    DN(Gs5,2,0x000),
    DN(Gs4,2,0x000),
    DN(___,0,0x000),
    DN(Gs5,2,0x000),
    DN(Gs4,2,0x000),
    DN(___,0,0x000),
    DN(Gs5,2,0x000),
    DN(Gs4,2,0x000),
    DN(___,0,0x000),
    DN(Gs5,2,0x000),
    DN(Gs4,2,0x000),
    DN(Gs5,2,0x000),
    DN(Gs4,2,0x000),
};

static const unsigned char itSquareSP1[] = {
    DN(___,0,0x000),
    DN(___,0,0x900),
    DN(___,0,0x000),
    DN(___,0,0x000),
    DN(___,0,0x000),
    DN(___,0,0x000),
    DN(___,0,0x000),
    DN(___,0,0x000),
    DN(___,0,0x000),
    DN(___,0,0x000),
    DN(___,0,0x000),
    DN(___,0,0x000),
    DN(___,0,0x000),
    DN(___,0,0x000),
    DN(___,0,0x000),
    DN(___,0,0x000),
    DN(___,0,0x000),
    DN(___,0,0x000),
    DN(___,0,0x000),
    DN(___,0,0x000),
    DN(___,0,0x000),
    DN(___,0,0x000),
    DN(___,0,0x000),
    DN(___,0,0x000),
    DN(___,0,0x000),
    DN(___,0,0x000),
    DN(___,0,0x000),
    DN(___,0,0x000),
    DN(___,0,0x000),
    DN(___,0,0x000),
    DN(___,0,0x000),
    DN(___,1,0x000),
};
static const unsigned char* const order1[] = {P0,P0,P5,P5};
static const unsigned char* const order2[] = {P1,P1,P6,P1};
static const unsigned char* const order3[] = {P2,P2,P2,P2};
static const unsigned char* const order4[] = {P3,P4,P4,P4};

static const hUGEDutyInstr_t duty_instruments[] = {
    {8,128,242,itSquareSP1,128},
    {8,64,242,0,128},
    {8,128,244,0,128},
    {8,192,240,0,128},
    {8,0,241,0,128},
    {8,64,241,0,128},
    {8,128,241,0,128},
    {8,192,241,0,128},
    {8,128,240,0,128},
    {8,128,240,0,128},
    {8,128,240,0,128},
    {8,128,240,0,128},
    {8,128,240,0,128},
    {8,128,240,0,128},
    {8,128,240,0,128},
};
static const hUGEWaveInstr_t wave_instruments[] = {
    {0,32,0,0,128},
    {219,32,1,0,192},
    {0,32,2,0,128},
    {0,32,3,0,128},
    {0,32,4,0,128},
    {0,32,5,0,128},
    {0,32,6,0,128},
    {0,32,7,0,128},
    {0,32,8,0,128},
    {0,32,9,0,128},
    {0,32,10,0,128},
    {0,32,11,0,128},
    {0,32,12,0,128},
    {0,32,13,0,128},
    {0,32,14,0,128},
};
static const hUGENoiseInstr_t noise_instruments[] = {
    {241,0,41,0,0},
    {240,0,0,0,0},
    {240,0,0,0,0},
    {240,0,0,0,0},
    {240,0,0,0,0},
    {240,0,0,0,0},
    {240,0,0,0,0},
    {240,0,0,0,0},
    {240,0,0,0,0},
    {240,0,0,0,0},
    {240,0,0,0,0},
    {240,0,0,0,0},
    {240,0,0,0,0},
    {240,0,0,0,0},
    {240,0,0,0,0},
};

static const unsigned char waves[] = {
    0,0,255,255,255,255,255,255,255,255,255,255,255,255,255,255,
    0,0,0,0,255,255,255,255,255,255,255,255,255,255,255,255,
    0,0,0,0,0,0,0,0,255,255,255,255,255,255,255,255,
    0,0,0,0,0,0,0,0,0,0,0,0,255,255,255,255,
    0,1,18,35,52,69,86,103,120,137,154,171,188,205,222,239,
    254,220,186,152,118,84,50,16,18,52,86,120,154,188,222,255,
    122,205,219,117,33,19,104,189,220,151,65,1,71,156,221,184,
    15,15,15,15,15,15,15,15,15,15,15,15,15,15,15,15,
    254,252,250,248,246,244,242,240,242,244,246,248,250,252,254,255,
    254,221,204,187,170,153,136,119,138,189,241,36,87,138,189,238,
    132,17,97,237,87,71,90,173,206,163,23,121,221,32,3,71,
    221,78,184,22,9,228,10,109,18,178,105,100,189,132,139,231,
    59,139,187,174,170,162,141,117,154,45,26,179,174,73,230,122,
    156,170,16,166,76,13,117,150,40,99,56,9,190,177,115,133,
    235,94,148,66,43,3,135,150,201,201,188,227,27,72,24,203,
    157,75,196,197,211,231,202,10,165,123,144,104,102,81,30,180,
};

const hUGESong_t BGM = {7, &order_cnt, order1, order2, order3,order4, duty_instruments, wave_instruments, noise_instruments, NULL, waves};
